<?xml version="1.0" encoding="UTF-8" standalone="no"?>
<!-- Created with Inkscape (http://www.inkscape.org/) -->

<svg
   xmlns:dc="http://purl.org/dc/elements/1.1/"
   xmlns:cc="http://creativecommons.org/ns#"
   xmlns:rdf="http://www.w3.org/1999/02/22-rdf-syntax-ns#"
   xmlns:svg="http://www.w3.org/2000/svg"
   xmlns="http://www.w3.org/2000/svg"
   xmlns:sodipodi="http://sodipodi.sourceforge.net/DTD/sodipodi-0.dtd"
   xmlns:inkscape="http://www.inkscape.org/namespaces/inkscape"
   sodipodi:docname="local_unif_config.svg"
   inkscape:version="0.48.3.1 r9886"
   version="1.1"
   id="svg2"
   height="227.78101"
   width="565.72247">
  <sodipodi:namedview
     id="base"
     pagecolor="#ffffff"
     bordercolor="#666666"
     borderopacity="1.0"
     inkscape:pageopacity="0.0"
     inkscape:pageshadow="2"
     inkscape:zoom="0.73339844"
     inkscape:cx="778.94088"
     inkscape:cy="17.817266"
     inkscape:document-units="px"
     inkscape:current-layer="layer1"
     showgrid="false"
     inkscape:window-width="1600"
     inkscape:window-height="878"
     inkscape:window-x="0"
     inkscape:window-y="0"
     inkscape:window-maximized="1"
     fit-margin-top="0"
     fit-margin-left="0"
     fit-margin-right="0"
     fit-margin-bottom="0" />
  <defs
     id="defs4">
    <inkscape:path-effect
       effect="spiro"
       id="path-effect6998"
       is_visible="true" />
    <marker
       inkscape:stockid="Arrow1Lend"
       orient="auto"
       refY="0"
       refX="0"
       id="Arrow1Lend"
       style="overflow:visible">
      <path
         id="path5200"
         d="M 0,0 5,-5 -12.5,0 5,5 0,0 z"
         style="fill-rule:evenodd;stroke:#000000;stroke-width:1pt"
         transform="matrix(-0.8,0,0,-0.8,-10,0)"
         inkscape:connector-curvature="0" />
    </marker>
    <inkscape:path-effect
       effect="spiro"
       id="path-effect6614"
       is_visible="true" />
    <inkscape:path-effect
       effect="spiro"
       id="path-effect6424"
       is_visible="true" />
    <inkscape:path-effect
       effect="spiro"
       id="path-effect6393"
       is_visible="true" />
    <inkscape:path-effect
       effect="spiro"
       id="path-effect6389"
       is_visible="true" />
    <inkscape:path-effect
       effect="spiro"
       id="path-effect5833"
       is_visible="true" />
    <inkscape:path-effect
       effect="spiro"
       id="path-effect5829"
       is_visible="true" />
    <inkscape:path-effect
       effect="spiro"
       id="path-effect5825"
       is_visible="true" />
    <marker
       inkscape:stockid="Arrow2Lend"
       orient="auto"
       refY="0"
       refX="0"
       id="Arrow2Lend"
       style="overflow:visible">
      <path
         id="path5218"
         style="fill-rule:evenodd;stroke-width:0.625;stroke-linejoin:round"
         d="M 8.7185878,4.0337352 -2.2072895,0.01601326 8.7185884,-4.0017078 c -1.7454984,2.3720609 -1.7354408,5.6174519 -6e-7,8.035443 z"
         transform="matrix(-1.1,0,0,-1.1,-1.1,0)"
         inkscape:connector-curvature="0" />
    </marker>
    <marker
       inkscape:stockid="Arrow1Mend"
       orient="auto"
       refY="0"
       refX="0"
       id="Arrow1Mend"
       style="overflow:visible">
      <path
         id="path5206"
         d="M 0,0 5,-5 -12.5,0 5,5 0,0 z"
         style="fill-rule:evenodd;stroke:#000000;stroke-width:1pt"
         transform="matrix(-0.4,0,0,-0.4,-4,0)"
         inkscape:connector-curvature="0" />
    </marker>
    <inkscape:path-effect
       effect="spiro"
       id="path-effect5191"
       is_visible="true" />
    <inkscape:path-effect
       effect="spiro"
       id="path-effect5187"
       is_visible="true" />
    <inkscape:path-effect
       effect="spiro"
       id="path-effect5183"
       is_visible="true" />
    <inkscape:path-effect
       effect="spiro"
       id="path-effect5179"
       is_visible="true" />
    <inkscape:path-effect
       effect="spiro"
       id="path-effect5175"
       is_visible="true" />
    <inkscape:path-effect
       effect="spiro"
       id="path-effect5171"
       is_visible="true" />
    <inkscape:path-effect
       effect="spiro"
       id="path-effect5113"
       is_visible="true" />
    <inkscape:path-effect
       effect="spiro"
       id="path-effect5109"
       is_visible="true" />
    <inkscape:path-effect
       is_visible="true"
       id="path-effect3016"
       effect="spiro" />
    <inkscape:path-effect
       is_visible="true"
       id="path-effect3012"
       effect="spiro" />
    <inkscape:path-effect
       is_visible="true"
       id="path-effect3008"
       effect="spiro" />
    <marker
       inkscape:stockid="Arrow2Lend"
       orient="auto"
       refY="0"
       refX="0"
       id="Arrow2Lend-0"
       style="overflow:visible">
      <path
         inkscape:connector-curvature="0"
         id="path5218-9"
         style="fill-rule:evenodd;stroke-width:0.625;stroke-linejoin:round"
         d="M 8.7185878,4.0337352 -2.2072895,0.01601326 8.7185884,-4.0017078 c -1.7454984,2.3720609 -1.7354408,5.6174519 -6e-7,8.035443 z"
         transform="matrix(-1.1,0,0,-1.1,-1.1,0)" />
    </marker>
    <inkscape:path-effect
       effect="spiro"
       id="path-effect5825-6"
       is_visible="true" />
  </defs>
  <metadata
     id="metadata7">
    <rdf:RDF>
      <cc:Work
         rdf:about="">
        <dc:format>image/svg+xml</dc:format>
        <dc:type
           rdf:resource="http://purl.org/dc/dcmitype/StillImage" />
        <dc:title />
      </cc:Work>
    </rdf:RDF>
  </metadata>
  <g
     id="layer1"
     inkscape:groupmode="layer"
     inkscape:label="Layer 1"
     transform="translate(-18.41845,42.404817)">
    <path
       id="path3014"
       d="m 20.85638,60.86209 c 26.83784,-20.33484 59.87007,-32.37784 93.4982,-34.08788 34.16417,-1.73729 68.95559,7.28404 97.39395,26.29636 18.41649,12.31225 34.5589,28.8511 55.51455,36.03576 15.27633,5.2375 32.05451,4.99912 47.81198,1.46362 15.75746,-3.5355 30.63067,-10.23521 44.93281,-17.73497 28.60427,-14.99953 56.43084,-33.7246 88.40796,-38.26926 10.64695,-1.51317 21.61887,-1.37103 32.01909,1.3644 10.40022,2.73542 20.21434,8.1578 27.39122,16.16651 5.89388,6.57701 9.93357,14.90726 10.88151,23.68771 0.94793,8.78045 -1.31106,17.96853 -6.67572,24.98389 -5.36466,7.01536 -13.8808,11.6649 -22.71045,11.84426 -4.41482,0.0897 -8.85649,-0.91088 -12.77327,-2.9499 -3.91677,-2.03902 -7.29615,-5.11886 -9.62753,-8.86898 -3.32661,-5.35098 -4.42394,-12.04174 -2.98082,-18.17499 1.44311,-6.13325 5.40873,-11.63273 10.77233,-14.93896"
       style="fill:none;stroke:#000000;stroke-width:1px;stroke-linecap:butt;stroke-linejoin:miter;stroke-opacity:1"
       inkscape:connector-curvature="0" />
    <g
       id="g1855"
       transform="translate(-134,-188)">
      <path
         style="fill:#ff0000;fill-opacity:1;stroke:#0000ff;stroke-width:2;stroke-linecap:round;stroke-miterlimit:4;stroke-opacity:1;stroke-dasharray:none;stroke-dashoffset:0"
         id="path4930"
         d="m 167.35559,240.29729 c 1.42459,2.30349 1.65469,5.05101 0.46234,7.48285 -1.19234,2.43184 -3.34086,3.87539 -6.0342,4.16066 -2.69335,0.28527 -5.33422,-0.88841 -6.92735,-3.07871 -1.59492,-2.189 -1.90048,-5.06274 -0.80153,-7.53818 1.09894,-2.47544 3.74151,-4.26448 6.44376,-4.44706 2.70226,-0.18259 5.43427,1.11578 6.85698,3.42044 0,0 0,0 0,0"
         inkscape:connector-curvature="0" />
      <path
         style="fill:#ff0000;fill-opacity:1;stroke:#0000ff;stroke-width:2;stroke-linecap:round;stroke-miterlimit:4;stroke-opacity:1;stroke-dasharray:none;stroke-dashoffset:0"
         id="path4932"
         d="m 182.57507,231.85733 c 1.1589,2.44796 1.10345,5.25688 -0.35417,7.53962 -1.45761,2.28274 -3.7333,3.52911 -6.44164,3.50819 -2.70834,-0.0209 -5.08329,-1.4881 -6.506,-3.79275 -1.42459,-2.30349 -1.34527,-5.29417 0.0264,-7.62957 1.37166,-2.33541 4.16552,-3.86312 6.8712,-3.74142 2.70569,0.12169 5.24732,1.66703 6.40423,4.11593 0,0 0,0 0,0"
         inkscape:connector-curvature="0" />
      <path
         style="fill:#ff0000;fill-opacity:1;stroke:#0000ff;stroke-width:2;stroke-linecap:round;stroke-miterlimit:4;stroke-opacity:1;stroke-dasharray:none;stroke-dashoffset:0"
         id="path4934"
         d="m 198.57978,225.01867 c 0.97541,2.52669 0.52835,5.38185 -1.17269,7.48945 -1.70105,2.10761 -4.08254,3.14737 -6.77185,2.82611 -2.6893,-0.32127 -4.86542,-1.99173 -6.02233,-4.44063 -1.1589,-2.44796 -0.77235,-5.46125 0.84994,-7.63007 1.62228,-2.16881 4.54416,-3.42844 7.21981,-3.00837 2.67565,0.42007 4.92377,2.23603 5.89712,4.76351 0,0 0,0 0,0"
         inkscape:connector-curvature="0" />
      <path
         style="fill:#ffff00;fill-opacity:1;stroke:#0000ff;stroke-width:2;stroke-linecap:round;stroke-miterlimit:4;stroke-opacity:1;stroke-dasharray:none;stroke-dashoffset:0"
         id="path4936"
         d="m 215.20198,219.86148 c 0.69071,2.61886 -0.0686,5.40727 -1.99175,7.31436 -1.92317,1.90709 -4.12897,2.58754 -6.78735,2.0693 -2.65838,-0.51823 -4.83817,-2.41569 -5.71785,-4.97727 -0.88178,-2.56087 -0.32997,-5.39764 1.44747,-7.44123 1.77744,-2.04359 5.10088,-3.06283 7.71385,-2.35016 2.61298,0.71268 4.64705,2.76557 5.33563,5.385 0,0 0,0 0,0"
         inkscape:connector-curvature="0" />
      <path
         style="fill:#ffff00;fill-opacity:1;stroke:#0000ff;stroke-width:2;stroke-linecap:round;stroke-miterlimit:4;stroke-opacity:1;stroke-dasharray:none;stroke-dashoffset:0"
         id="path4938"
         d="m 232.25933,216.41307 c 0.39445,2.67954 -0.48645,5.28567 -2.54581,7.04482 -2.05935,1.75914 -4.61238,2.22517 -7.19718,1.41622 -2.58479,-0.80895 -4.54144,-2.93575 -5.13254,-5.57888 -0.59326,-2.64265 0.26878,-5.40103 2.26124,-7.23559 1.99247,-1.83456 5.12316,-2.41877 7.67605,-1.51419 2.5529,0.90458 4.54598,3.18776 4.93824,5.86762 0,0 0,0 0,0"
         inkscape:connector-curvature="0" />
      <path
         style="fill:#ffff00;fill-opacity:1;stroke:#0000ff;stroke-width:2;stroke-linecap:round;stroke-miterlimit:4;stroke-opacity:1;stroke-dasharray:none;stroke-dashoffset:0"
         id="path4940"
         d="m 249.58075,214.73599 c 0.0855,2.70705 -1.07777,5.25216 -3.32272,6.76731 -2.24496,1.51515 -4.82256,1.74665 -7.30029,0.65286 -2.47773,-1.09379 -4.07583,-3.39062 -4.46809,-6.07048 -0.39444,-2.67954 0.8667,-5.3857 3.05238,-6.98517 2.18568,-1.59948 5.36377,-1.88454 7.79808,-0.69726 2.43431,1.18727 4.15736,3.62562 4.24064,6.33274 0,0 0,0 0,0"
         inkscape:connector-curvature="0" />
      <path
         style="fill:#ffff00;fill-opacity:1;stroke:#0000ff;stroke-width:2;stroke-linecap:round;stroke-miterlimit:4;stroke-opacity:1;stroke-dasharray:none;stroke-dashoffset:0"
         id="path4942"
         d="m 266.98359,214.89804 c -0.12597,2.70548 -1.68611,5.1381 -4.09244,6.38109 -2.40633,1.24299 -4.98808,1.24109 -7.32256,-0.13209 -2.33448,-1.37319 -3.65143,-3.77416 -3.73471,-6.48128 -0.0855,-2.70706 1.48337,-5.31467 3.83946,-6.65044 2.35609,-1.33577 5.55472,-1.31694 7.83395,0.14613 2.27923,1.46307 3.60448,4.03122 3.4763,6.73659 0,0 0,0 0,0"
         inkscape:connector-curvature="0" />
      <path
         style="fill:#ffff00;fill-opacity:1;stroke:#0000ff;stroke-width:2;stroke-linecap:round;stroke-miterlimit:4;stroke-opacity:1;stroke-dasharray:none;stroke-dashoffset:0"
         id="path4944"
         d="m 284.26866,216.91949 c -0.43956,2.6725 -2.27186,4.90731 -4.80636,5.86219 -2.53449,0.95488 -4.79849,0.7029 -7.01918,-0.84759 -2.22069,-1.55048 -3.44519,-4.16817 -3.21204,-6.86652 0.23095,-2.69854 1.88439,-5.06874 4.33719,-6.21733 2.45279,-1.1486 5.9369,-0.74379 8.03063,0.97427 2.09374,1.71807 3.11151,4.42285 2.66976,7.09498 0,0 0,0 0,0"
         inkscape:connector-curvature="0" />
      <path
         style="fill:#ffff00;fill-opacity:1;stroke:#0000ff;stroke-width:2;stroke-linecap:round;stroke-miterlimit:4;stroke-opacity:1;stroke-dasharray:none;stroke-dashoffset:0"
         id="path4946"
         d="m 301.24744,220.73217 c -0.74948,2.60263 -2.62584,4.63424 -5.22706,5.38864 -2.60122,0.7544 -5.10933,0.14973 -7.1346,-1.64853 -2.02527,-1.79826 -2.83471,-4.51389 -2.39296,-7.18603 0.43957,-2.6725 2.46254,-4.82264 5.03228,-5.67814 2.56974,-0.85551 5.68202,-0.11452 7.63545,1.76153 1.95343,1.87606 2.83851,4.76051 2.08689,7.36253 0,0 0,0 0,0"
         inkscape:connector-curvature="0" />
      <path
         style="fill:#ffff00;fill-opacity:1;stroke:#0000ff;stroke-width:2;stroke-linecap:round;stroke-miterlimit:4;stroke-opacity:1;stroke-dasharray:none;stroke-dashoffset:0"
         id="path4948"
         d="m 317.72884,226.31968 c -1.05579,2.49413 -3.18368,4.3559 -5.85604,4.79624 -2.67236,0.44034 -5.10873,-0.38631 -6.90807,-2.41061 -1.79934,-2.0243 -2.30295,-4.74643 -1.55133,-7.34845 0.74949,-2.60263 3.03498,-4.56838 5.6876,-5.11523 2.65262,-0.54684 5.68618,0.49136 7.40313,2.58599 1.71696,2.09463 2.28254,4.99879 1.22471,7.49206 0,0 0,0 0,0"
         inkscape:connector-curvature="0" />
      <path
         style="fill:#ffff00;fill-opacity:1;stroke:#0000ff;stroke-width:2;stroke-linecap:round;stroke-miterlimit:4;stroke-opacity:1;stroke-dasharray:none;stroke-dashoffset:0"
         id="path4950"
         d="m 333.48028,233.7184 c -1.25731,2.39885 -3.69917,3.94444 -6.40532,4.05427 -2.70615,0.10983 -4.71355,-0.8873 -6.34446,-3.04959 -1.63091,-2.16229 -1.98399,-5.03055 -0.92616,-7.52382 1.05579,-2.49413 3.36229,-4.23529 6.05026,-4.56728 2.68796,-0.33199 5.87379,1.22287 7.32136,3.51195 1.44757,2.28907 1.56359,5.17664 0.30432,7.57447 0,0 0,0 0,0"
         inkscape:connector-curvature="0" />
      <path
         style="fill:#ffff00;fill-opacity:1;stroke:#0000ff;stroke-width:2;stroke-linecap:round;stroke-miterlimit:4;stroke-opacity:1;stroke-dasharray:none;stroke-dashoffset:0"
         id="path4952"
         d="m 348.30685,242.82784 c -1.5326,2.2332 -3.96102,3.5294 -6.66676,3.41013 -2.70574,-0.11927 -4.84298,-1.51582 -6.19316,-3.86365 -1.35017,-2.34783 -1.34484,-5.23772 0.014,-7.58056 1.35692,-2.34394 3.86152,-3.78562 6.56989,-3.78173 2.70837,0.004 5.42228,1.75125 6.67121,4.15447 1.24893,2.40321 1.13925,5.4294 -0.39518,7.66134 0,0 0,0 0,0"
         inkscape:connector-curvature="0" />
      <path
         style="fill:#ffff00;fill-opacity:1;stroke:#0000ff;stroke-width:2;stroke-linecap:round;stroke-miterlimit:4;stroke-opacity:1;stroke-dasharray:none;stroke-dashoffset:0"
         id="path4954"
         d="m 362.27805,253.21749 c -1.65036,2.14772 -4.32138,3.25151 -7.00644,2.89538 -2.68506,-0.35612 -4.94165,-2.02142 -6.0021,-4.51371 -1.06045,-2.4923 -0.70131,-5.27539 0.88072,-7.47388 1.58024,-2.19978 4.32358,-3.34927 7.01228,-3.02223 2.6887,0.32704 5.08194,2.09587 6.11537,4.59954 1.03344,2.50367 0.65228,5.36853 -0.99983,7.5149 0,0 0,0 0,0"
         inkscape:connector-curvature="0" />
      <path
         style="fill:#ffff00;fill-opacity:1;stroke:#0000ff;stroke-width:2;stroke-linecap:round;stroke-miterlimit:4;stroke-opacity:1;stroke-dasharray:none;stroke-dashoffset:0"
         id="path4956"
         d="m 376.22229,263.64415 c -1.53479,2.23169 -4.22134,3.39189 -6.91624,3.12035 -2.69489,-0.27155 -5.11819,-2.1363 -6.17743,-4.62912 -1.05923,-2.49281 -0.71569,-5.39719 0.93642,-7.54356 1.65036,-2.14772 4.27316,-3.27706 6.96171,-2.9487 2.68855,0.32835 4.84268,1.9948 5.95429,4.46472 1.11161,2.46991 0.77786,5.30587 -0.75875,7.53631 0,0 0,0 0,0"
         inkscape:connector-curvature="0" />
      <path
         style="fill:#ff0000;fill-opacity:1;stroke:#0000ff;stroke-width:2;stroke-linecap:round;stroke-miterlimit:4;stroke-opacity:1;stroke-dasharray:none;stroke-dashoffset:0"
         id="path4958"
         d="m 391.05943,272.72701 c -1.20611,2.42495 -3.81191,3.90913 -6.51985,3.9584 -2.70794,0.0493 -5.65327,-1.74495 -6.88245,-4.15846 -1.22917,-2.4135 -1.11451,-5.37418 0.4221,-7.60462 1.53479,-2.23169 4.02615,-3.55037 6.73093,-3.40885 2.70477,0.14152 4.69306,1.36165 6.08906,3.68254 1.39601,2.3209 1.36829,5.10703 0.16021,7.53099 0,0 0,0 0,0"
         inkscape:connector-curvature="0" />
      <path
         style="fill:#ff0000;fill-opacity:1;stroke:#0000ff;stroke-width:2;stroke-linecap:round;stroke-miterlimit:4;stroke-opacity:1;stroke-dasharray:none;stroke-dashoffset:0"
         id="path4960"
         d="m 407.30615,278.8748 c -0.60169,2.64071 -2.99983,4.67134 -5.64574,5.24962 -2.64591,0.57828 -6.15621,-0.65004 -7.76073,-2.83185 -1.60452,-2.1818 -2.03048,-5.13694 -0.8224,-7.5609 1.20611,-2.42495 3.40074,-4.16733 6.09242,-4.46671 2.69167,-0.29939 4.65552,0.34494 6.47874,2.34773 1.82321,2.00278 2.26156,4.6219 1.65771,7.26211 0,0 0,0 0,0"
         inkscape:connector-curvature="0" />
      <path
         style="fill:#ff0000;fill-opacity:1;stroke:#0000ff;stroke-width:2;stroke-linecap:round;stroke-miterlimit:4;stroke-opacity:1;stroke-dasharray:none;stroke-dashoffset:0"
         id="path4962"
         d="m 424.53925,281.11176 c -0.0968,2.70672 -1.81574,5.18599 -4.25168,6.36997 -2.43594,1.18397 -5.88824,0.77536 -8.0127,-0.90456 -2.12447,-1.67992 -3.37486,-4.56046 -2.77101,-7.20067 0.60169,-2.64071 2.15612,-4.79248 4.67293,-5.79304 2.51682,-1.00057 4.80359,-0.71883 7.0465,0.79938 2.24291,1.51821 3.41495,4.02229 3.31596,6.72892 0,0 0,0 0,0"
         inkscape:connector-curvature="0" />
      <path
         style="fill:#ffff00;fill-opacity:1;stroke:#0000ff;stroke-width:2;stroke-linecap:round;stroke-miterlimit:4;stroke-opacity:1;stroke-dasharray:none;stroke-dashoffset:0"
         id="path4964"
         d="m 441.8872,279.92613 c 0.4109,2.67714 -0.78587,5.40054 -2.9474,7.03261 -2.16153,1.63207 -5.77193,1.94226 -8.15779,0.66031 -2.38586,-1.28196 -3.99582,-3.77869 -3.98885,-6.48713 0.005,-2.70844 1.28321,-5.21323 3.58596,-6.63909 2.30275,-1.42587 4.45567,-1.62397 6.94956,-0.56739 2.4939,1.05659 4.1498,3.32322 4.55852,6.00069 0,0 0,0 0,0"
         inkscape:connector-curvature="0" />
      <path
         style="fill:#ffff00;fill-opacity:1;stroke:#0000ff;stroke-width:2;stroke-linecap:round;stroke-miterlimit:4;stroke-opacity:1;stroke-dasharray:none;stroke-dashoffset:0"
         id="path4966"
         d="m 458.81867,275.93663 c 0.78002,2.5936 0.11672,5.40633 -1.73993,7.37814 -1.85665,1.97182 -5.32423,2.7858 -7.89824,1.94293 -2.574,-0.84288 -4.58588,-3.03552 -5.06959,-5.70046 -0.48589,-2.66455 0.35042,-5.34273 2.36688,-7.15099 2.01646,-1.80827 4.18821,-2.29122 6.82401,-1.66851 2.6358,0.62272 4.73896,2.60466 5.51687,5.19889 0,0 0,0 0,0"
         inkscape:connector-curvature="0" />
      <path
         style="fill:#ffff00;fill-opacity:1;stroke:#0000ff;stroke-width:2;stroke-linecap:round;stroke-miterlimit:4;stroke-opacity:1;stroke-dasharray:none;stroke-dashoffset:0"
         id="path4968"
         d="m 475.13558,269.88782 c 1.06434,2.49059 0.58411,5.48066 -1.11109,7.59299 -1.6952,2.11233 -4.66118,3.2731 -7.32074,2.7611 -2.65957,-0.51199 -4.84378,-2.40431 -5.72947,-4.9638 -0.88778,-2.55876 -0.34263,-5.3968 1.43,-7.44454 1.77262,-2.04774 4.18498,-3.0053 6.8618,-2.59265 2.67682,0.41265 4.80719,2.15545 5.8695,4.6469 0,0 0,0 0,0"
         inkscape:connector-curvature="0" />
      <path
         style="fill:#ffff00;fill-opacity:1;stroke:#0000ff;stroke-width:2;stroke-linecap:round;stroke-miterlimit:4;stroke-opacity:1;stroke-dasharray:none;stroke-dashoffset:0"
         id="path4970"
         d="m 490.87314,262.44593 c 1.239,2.40854 1.01778,5.35937 -0.49302,7.6074 -1.5108,2.24802 -4.28048,3.5905 -6.9775,3.34132 -2.69701,-0.24917 -5.13141,-1.9004 -6.19372,-4.39185 -1.06434,-2.49058 -0.86376,-5.32489 0.69994,-7.53641 1.5637,-2.21153 3.99379,-3.39284 6.69598,-3.20773 2.70219,0.18512 5.03128,1.77772 6.26832,4.18727 0,0 0,0 0,0"
         inkscape:connector-curvature="0" />
      <path
         style="fill:#ffff00;fill-opacity:1;stroke:#0000ff;stroke-width:2;stroke-linecap:round;stroke-miterlimit:4;stroke-opacity:1;stroke-dasharray:none;stroke-dashoffset:0"
         id="path4972"
         d="m 506.22583,254.2316 c 1.31094,2.37019 1.21017,5.28903 -0.21223,7.594 -1.4224,2.30498 -3.96671,3.67572 -6.67406,3.59564 -2.70735,-0.0801 -5.22434,-1.59615 -6.46137,-4.0057 -1.239,-2.40855 -1.18984,-5.25094 0.23256,-7.55592 1.4224,-2.30498 3.96671,-3.67572 6.67406,-3.59564 2.70735,0.0801 5.13203,1.59636 6.44104,3.96762 0,0 0,0 0,0"
         inkscape:connector-curvature="0" />
      <path
         style="fill:#ffff00;fill-opacity:1;stroke:#0000ff;stroke-width:2;stroke-linecap:round;stroke-miterlimit:4;stroke-opacity:1;stroke-dasharray:none;stroke-dashoffset:0"
         id="path4974"
         d="m 521.48926,245.85099 c 1.29494,2.37894 1.22197,5.2681 -0.19141,7.57863 -1.41339,2.31054 -3.89879,3.67798 -6.60688,3.62672 -2.70809,-0.0513 -5.183,-1.54376 -6.492,-3.91502 -1.31095,-2.37019 -1.25743,-5.2598 0.14038,-7.57983 1.3978,-2.32002 3.97683,-3.7386 6.68448,-3.6691 2.70766,0.0695 5.17243,1.5786 6.46543,3.9586 0,0 0,0 0,0"
         inkscape:connector-curvature="0" />
      <path
         style="fill:#ffff00;fill-opacity:1;stroke:#0000ff;stroke-width:2;stroke-linecap:round;stroke-miterlimit:4;stroke-opacity:1;stroke-dasharray:none;stroke-dashoffset:0"
         id="path4976"
         d="m 536.92318,237.79176 c 1.2171,2.41968 1.05047,5.30493 -0.43709,7.56841 -1.48757,2.26348 -3.93121,3.54517 -6.63742,3.43255 -2.70621,-0.11262 -5.08594,-1.63873 -6.37894,-4.01872 -1.29494,-2.37894 -1.16051,-5.3293 0.2895,-7.61704 1.45002,-2.28773 4.12636,-3.68865 6.83032,-3.53138 2.70397,0.15726 5.1185,1.74551 6.33363,4.16618 0,0 0,0 0,0"
         inkscape:connector-curvature="0" />
      <path
         style="fill:#ffff00;fill-opacity:1;stroke:#0000ff;stroke-width:2;stroke-linecap:round;stroke-miterlimit:4;stroke-opacity:1;stroke-dasharray:none;stroke-dashoffset:0"
         id="path4978"
         d="m 552.82631,230.71151 c 1.0279,2.50583 0.64048,5.36972 -1.01626,7.51237 -1.65674,2.14265 -3.90729,3.10998 -6.60734,2.89597 -2.70005,-0.21401 -5.08067,-1.8526 -6.24469,-4.29823 -1.16602,-2.44468 -0.93884,-5.32578 0.59591,-7.5575 1.53475,-2.23173 4.59327,-3.55635 7.27713,-3.19217 2.68386,0.36419 4.9694,2.1329 5.99525,4.63956 0,0 0,0 0,0"
         inkscape:connector-curvature="0" />
      <path
         style="fill:#ffff00;fill-opacity:1;stroke:#0000ff;stroke-width:2;stroke-linecap:round;stroke-miterlimit:4;stroke-opacity:1;stroke-dasharray:none;stroke-dashoffset:0"
         id="path4980"
         d="m 569.34347,225.23462 c 0.69384,2.61813 0.0529,5.36977 -1.82326,7.32327 -1.87614,1.95351 -4.08944,2.65176 -6.75893,2.19421 -2.66949,-0.45756 -4.89192,-2.30488 -5.82971,-4.84576 -0.93987,-2.54012 -0.45281,-5.38872 1.27763,-7.47226 1.73043,-2.08354 5.02856,-3.1394 7.65823,-2.49065 2.62968,0.64875 4.78435,2.67249 5.47604,5.29119 0,0 0,0 0,0"
         inkscape:connector-curvature="0" />
      <path
         style="fill:#ffff00;fill-opacity:1;stroke:#0000ff;stroke-width:2;stroke-linecap:round;stroke-miterlimit:4;stroke-opacity:1;stroke-dasharray:none;stroke-dashoffset:0"
         id="path4982"
         d="m 586.44885,222.07555 c 0.21692,2.69967 -0.80249,5.34668 -2.96684,6.97487 -2.16435,1.62819 -4.32135,2.05515 -6.89676,1.21657 -2.57542,-0.83857 -4.42906,-2.95194 -5.05689,-5.58668 -0.62997,-2.63422 0.31928,-5.44864 2.33273,-7.26027 2.01344,-1.81163 5.541,-2.4663 8.03293,-1.40533 2.49194,1.06096 4.34012,3.361 4.55483,6.06084 0,0 0,0 0,0"
         inkscape:connector-curvature="0" />
      <path
         style="fill:#ffff00;fill-opacity:1;stroke:#0000ff;stroke-width:2;stroke-linecap:round;stroke-miterlimit:4;stroke-opacity:1;stroke-dasharray:none;stroke-dashoffset:0"
         id="path4984"
         d="m 603.82919,222.04316 c -0.30346,2.69119 -1.74836,5.04722 -4.17092,6.25803 -2.42255,1.2108 -4.55322,1.21323 -6.94555,-0.0564 -2.39234,-1.2696 -3.8021,-3.64905 -4.01681,-6.34889 -0.21692,-2.69967 1.25107,-5.33688 3.54635,-6.77453 2.29528,-1.43764 5.94717,-1.42115 8.20663,0.0721 2.25945,1.4932 3.68596,4.15876 3.3803,6.8497 0,0 0,0 0,0"
         inkscape:connector-curvature="0" />
      <path
         style="fill:#ff0000;fill-opacity:1;stroke:#0000ff;stroke-width:2;stroke-linecap:round;stroke-miterlimit:4;stroke-opacity:1;stroke-dasharray:none;stroke-dashoffset:0"
         id="path4986"
         d="m 620.74173,225.95841 c -0.98058,2.52471 -2.91027,4.43894 -5.55443,5.02559 -2.64416,0.58666 -4.50918,0.1257 -6.56983,-1.63203 -2.06065,-1.75772 -2.85418,-4.36438 -2.54852,-7.05533 0.30347,-2.69119 2.37956,-4.95269 4.93187,-5.8591 2.55232,-0.9064 6.30551,0.0247 8.13511,2.02176 1.82959,1.99708 2.58844,4.97519 1.6058,7.49911 0,0 0,0 0,0"
         inkscape:connector-curvature="0" />
      <path
         style="fill:#ff0000;fill-opacity:1;stroke:#0000ff;stroke-width:2;stroke-linecap:round;stroke-miterlimit:4;stroke-opacity:1;stroke-dasharray:none;stroke-dashoffset:0"
         id="path4988"
         d="m 635.84919,234.47504 c -1.65196,2.14627 -4.1539,3.35441 -6.85028,3.09936 -2.69638,-0.25504 -4.24564,-1.0672 -5.71703,-3.34111 -1.47138,-2.27391 -1.5157,-4.94334 -0.44932,-7.43302 1.06435,-2.49055 3.72398,-4.12091 6.4289,-4.25894 2.70492,-0.13804 6.2201,1.86718 7.34675,4.33014 1.12665,2.46296 0.8947,5.45864 -0.75902,7.60357 0,0 0,0 0,0"
         inkscape:connector-curvature="0" />
      <path
         style="fill:#ff0000;fill-opacity:1;stroke:#0000ff;stroke-width:2;stroke-linecap:round;stroke-miterlimit:4;stroke-opacity:1;stroke-dasharray:none;stroke-dashoffset:0"
         id="path4990"
         d="m 647.22985,247.51961 c -2.33587,1.37086 -5.00239,1.70199 -7.44917,0.5406 -2.44677,-1.1614 -3.32281,-2.25265 -4.04579,-4.86275 -0.72297,-2.6101 0.0282,-5.27352 1.8468,-7.28053 1.81696,-2.00849 4.73709,-2.76252 7.35918,-2.0843 2.62209,0.67822 5.43256,4.07075 5.64942,6.77048 0.21685,2.69973 -1.02345,5.54754 -3.36044,6.9165 0,0 0,0 0,0"
         inkscape:connector-curvature="0" />
      <path
         style="fill:#ffff00;fill-opacity:1;stroke:#0000ff;stroke-width:2;stroke-linecap:round;stroke-miterlimit:4;stroke-opacity:1;stroke-dasharray:none;stroke-dashoffset:0"
         id="path4992"
         d="m 652.71798,263.90598 c -2.69853,0.23031 -5.17472,-0.33611 -6.99926,-2.3377 -1.82455,-2.00158 -2.30348,-3.53681 -1.91002,-6.21648 0.39346,-2.67967 2.12593,-4.57928 4.51239,-5.86004 2.38541,-1.28271 5.56855,-0.66587 7.69294,1.01414 2.12439,1.68 3.355,5.67459 2.53315,8.25526 -0.82186,2.58067 -3.13048,4.91672 -5.8292,5.14482 0,0 0,0 0,0"
         inkscape:connector-curvature="0" />
      <path
         style="fill:#ffff00;fill-opacity:1;stroke:#0000ff;stroke-width:2;stroke-linecap:round;stroke-miterlimit:4;stroke-opacity:1;stroke-dasharray:none;stroke-dashoffset:0"
         id="path4994"
         d="m 650.39948,280.99325 c -2.52172,-0.98788 -4.45165,-2.77019 -5.10781,-5.39784 -0.65615,-2.62764 -0.47859,-3.71603 0.99352,-5.98936 1.4721,-2.27334 3.88464,-3.34661 6.59094,-3.45199 2.70621,-0.10758 5.29053,1.70913 6.5239,4.12034 1.23337,2.41121 0.46357,7.05624 -1.48447,8.93778 -1.94804,1.88153 -4.99517,2.77101 -7.51608,1.78107 0,0 0,0 0,0"
         inkscape:connector-curvature="0" />
      <path
         style="fill:#ffff00;fill-opacity:1;stroke:#0000ff;stroke-width:2;stroke-linecap:round;stroke-miterlimit:4;stroke-opacity:1;stroke-dasharray:none;stroke-dashoffset:0"
         id="path4996"
         d="m 640.02147,294.69096 c -1.57508,-2.20313 -2.44596,-4.49743 -1.7338,-7.11037 0.71215,-2.61294 1.46696,-3.53108 3.87743,-4.76572 2.41048,-1.23464 4.87133,-0.86376 7.34122,0.24736 2.47078,1.10912 3.82315,4.17482 3.68788,6.87971 -0.13527,2.70489 -3.04328,6.2759 -5.66241,6.96492 -2.61914,0.68901 -5.93704,-0.0115 -7.51032,-2.2159 0,0 0,0 0,0"
         inkscape:connector-curvature="0" />
      <path
         style="fill:#ffff00;fill-opacity:1;stroke:#0000ff;stroke-width:2;stroke-linecap:round;stroke-miterlimit:4;stroke-opacity:1;stroke-dasharray:none;stroke-dashoffset:0"
         id="path4998"
         d="m 623.91294,300.58186 c -0.14114,-2.70445 0.54699,-5.15445 2.62193,-6.89481 2.07493,-1.74036 2.71148,-1.94294 5.414,-1.76701 2.70252,0.17593 4.76208,1.76143 6.21525,4.04681 1.45502,2.28419 1.10242,5.47407 -0.40059,7.72697 -1.503,2.25289 -6.40845,3.85297 -8.95286,2.92552 -2.54441,-0.92746 -4.75879,-3.33291 -4.89773,-6.03748 0,0 0,0 0,0"
         inkscape:connector-curvature="0" />
      <path
         style="fill:#ffff00;fill-opacity:1;stroke:#0000ff;stroke-width:2;stroke-linecap:round;stroke-miterlimit:4;stroke-opacity:1;stroke-dasharray:none;stroke-dashoffset:0"
         id="path5000"
         d="m 607.50978,295.78646 c 1.62596,-2.16564 3.37086,-3.74388 6.07105,-3.95075 2.70018,-0.20687 3.55042,0.10329 5.5892,1.88583 2.03878,1.78255 2.6855,4.17208 2.48984,6.87316 -0.19345,2.70123 -2.46755,5.13455 -5.03043,6.00961 -2.56288,0.87506 -7.19905,-0.6942 -8.72769,-2.9296 -1.52864,-2.23541 -2.01971,-5.72394 -0.39197,-7.88825 0,0 0,0 0,0"
         inkscape:connector-curvature="0" />
      <path
         style="fill:#ffff00;fill-opacity:1;stroke:#0000ff;stroke-width:2;stroke-linecap:round;stroke-miterlimit:4;stroke-opacity:1;stroke-dasharray:none;stroke-dashoffset:0"
         id="path5002"
         d="m 597.98221,281.66868 c 2.63389,-0.63055 5.12063,-0.50745 7.24874,1.16767 2.12812,1.67512 2.19049,1.8558 2.73953,4.50762 0.54904,2.65183 -0.46105,4.99157 -2.22729,7.04441 -1.76456,2.05428 -5.00435,2.54102 -7.57565,1.69129 -2.5713,-0.84973 -5.5178,-5.68946 -5.13044,-8.36992 0.38737,-2.68045 2.31071,-5.41267 4.94511,-6.04107 0,0 0,0 0,0"
         inkscape:connector-curvature="0" />
      <path
         style="fill:#ffff00;fill-opacity:1;stroke:#0000ff;stroke-width:2;stroke-linecap:round;stroke-miterlimit:4;stroke-opacity:1;stroke-dasharray:none;stroke-dashoffset:0"
         id="path5004"
         d="m 600.17124,264.78728 c 2.3714,1.30821 4.16773,3.08633 4.61552,5.75735 0.44779,2.67102 0.47448,2.83718 -0.89443,5.17407 -1.36891,2.33688 -3.64419,3.36294 -6.32669,3.73595 -2.68221,0.37521 -5.46475,-1.46335 -6.80473,-3.81694 -1.33999,-2.35359 -0.36466,-7.96715 1.72509,-9.68989 2.08975,-1.72274 5.3149,-2.47068 7.68524,-1.16054 0,0 0,0 0,0"
         inkscape:connector-curvature="0" />
      <path
         style="fill:#ffff00;fill-opacity:1;stroke:#0000ff;stroke-width:2;stroke-linecap:round;stroke-miterlimit:4;stroke-opacity:1;stroke-dasharray:none;stroke-dashoffset:0"
         id="path5006"
         d="m 612.71789,253.06632 c 1.48074,2.26765 1.63884,5.15311 0.41471,7.56896 -1.22412,2.41584 -2.05587,2.88675 -4.64153,3.69255 -2.58566,0.80581 -4.92693,0.0594 -7.16042,-1.47241 -2.23473,-1.53001 -3.08718,-4.78778 -2.49291,-7.43009 0.59426,-2.64231 4.41547,-5.64094 7.11975,-5.78801 2.70429,-0.14706 5.28151,1.16016 6.7604,3.429 0,0 0,0 0,0"
         inkscape:connector-curvature="0" />
      <path
         style="fill:#ffff00;fill-opacity:1;stroke:#0000ff;stroke-width:2;stroke-linecap:round;stroke-miterlimit:4;stroke-opacity:1;stroke-dasharray:none;stroke-dashoffset:0"
         id="path5008"
         d="m 627.30014,243.5528 c 1.48074,2.26764 1.63884,5.15311 0.41471,7.56895 -1.22412,2.41585 -3.64439,3.99484 -6.34867,4.14191 -2.70429,0.14706 -5.28151,-1.16015 -6.7604,-3.429 -1.48074,-2.26765 -1.63884,-5.15311 -0.41471,-7.56896 1.22412,-2.41584 3.64439,-3.99483 6.34867,-4.1419 2.70429,-0.14707 5.28151,1.16015 6.7604,3.429 0,0 0,0 0,0"
         inkscape:connector-curvature="0" />
      <path
         style="fill:#ffff00;fill-opacity:1;stroke:#0000ff;stroke-width:2;stroke-linecap:round;stroke-miterlimit:4;stroke-opacity:1;stroke-dasharray:none;stroke-dashoffset:0"
         id="path5010"
         d="m 641.88235,234.03931 c 1.48074,2.26764 1.63884,5.1531 0.41471,7.56895 -1.22412,2.41584 -3.64439,3.99484 -6.34867,4.1419 -2.70429,0.14707 -5.28151,-1.16015 -6.7604,-3.429 -1.48074,-2.26764 -1.63884,-5.15311 -0.41472,-7.56895 1.22413,-2.41585 3.64439,-3.99484 6.34868,-4.14191 2.70428,-0.14706 5.28151,1.16016 6.7604,3.42901 0,0 0,0 0,0"
         inkscape:connector-curvature="0" />
      <path
         style="fill:#ffff00;fill-opacity:1;stroke:#0000ff;stroke-width:2;stroke-linecap:round;stroke-miterlimit:4;stroke-opacity:1;stroke-dasharray:none;stroke-dashoffset:0"
         id="path5012"
         d="m 656.46457,224.5258 c 1.48074,2.26764 1.63884,5.15311 0.41472,7.56895 -1.22413,2.41585 -3.64439,3.99484 -6.34868,4.1419 -2.70428,0.14707 -5.28151,-1.16015 -6.7604,-3.429 -1.48073,-2.26764 -1.63883,-5.1531 -0.41471,-7.56895 1.22412,-2.41585 3.64439,-3.99484 6.34868,-4.1419 2.70428,-0.14707 5.28151,1.16015 6.76039,3.429 0,0 0,0 0,0"
         inkscape:connector-curvature="0" />
    </g>
    <text
       xml:space="preserve"
       style="font-size:30px;font-style:normal;font-weight:normal;line-height:125%;letter-spacing:0px;word-spacing:0px;fill:#000000;fill-opacity:1;stroke:none;font-family:Helvetica;-inkscape-font-specification:Helvetica"
       x="200"
       y="-25.637817"
       id="text5115"
       sodipodi:linespacing="125%"><tspan
         sodipodi:role="line"
         id="tspan5117"
         x="200"
         y="-25.637817"
         style="font-size:23px">p interacting regions</tspan></text>
    <text
       xml:space="preserve"
       style="font-size:30px;font-style:normal;font-variant:normal;font-weight:normal;font-stretch:normal;line-height:125%;letter-spacing:0px;word-spacing:0px;fill:#000000;fill-opacity:1;stroke:none;font-family:Symbol;-inkscape-font-specification:Symbol"
       x="187"
       y="205.36218"
       id="text5119"
       sodipodi:linespacing="125%"><tspan
         sodipodi:role="line"
         id="tspan5121"
         x="187"
         y="205.36218" /><tspan
         sodipodi:role="line"
         x="187"
         y="242.86218"
         id="tspan5123" /><tspan
         sodipodi:role="line"
         x="187"
         y="280.36218"
         id="tspan5125" /></text>
    <text
       xml:space="preserve"
       style="font-size:23px;font-style:normal;font-variant:normal;font-weight:normal;font-stretch:normal;line-height:125%;letter-spacing:0px;word-spacing:0px;fill:#000000;fill-opacity:1;stroke:none;font-family:Helvetica;-inkscape-font-specification:Helvetica"
       x="259.51999"
       y="150.90717"
       id="text5127"
       sodipodi:linespacing="125%"><tspan
         sodipodi:role="line"
         id="tspan5129"
         x="259.51999"
         y="150.90717">ηN/p lenght of interacting region</tspan></text>
    <text
       xml:space="preserve"
       style="font-size:23px;font-style:normal;font-variant:normal;font-weight:normal;font-stretch:normal;line-height:125%;letter-spacing:0px;word-spacing:0px;fill:#000000;fill-opacity:1;stroke:none;font-family:Helvetica;-inkscape-font-specification:Helvetica"
       x="31.429993"
       y="180.36218"
       id="text5131"
       sodipodi:linespacing="125%"><tspan
         sodipodi:role="line"
         id="tspan5133"
         x="31.429993"
         y="180.36218">(η -1)N/p lenght of not interacting region</tspan></text>
    <path
       style="fill:none;stroke:#000000;stroke-width:1px;stroke-linecap:butt;stroke-linejoin:miter;stroke-opacity:1;marker-end:url(#Arrow2Lend)"
       d="m 146,-32.637817 c -18.37634,1.29562 -36.58114,5.004006 -54,11 -8.769946,3.018829 -17.418473,6.657179 -25,12 -13.318066,9.38544973 -22.829595,24.018571 -26,40"
       id="path5189"
       inkscape:path-effect="#path-effect5191"
       inkscape:original-d="m 146,-32.637817 c 22,7 -40.91277,6.601402 -54,11 -13.087231,4.398598 -45,34 -25,12 20,-22 -26,40 -26,40"
       inkscape:connector-curvature="0"
       sodipodi:nodetypes="czsc" />
    <path
       style="fill:none;stroke:#000000;stroke-width:1px;stroke-linecap:butt;stroke-linejoin:miter;stroke-opacity:1;marker-start:none;marker-end:url(#Arrow2Lend)"
       d="M 289,-5.6378174 274,63.362183"
       id="path5823"
       inkscape:path-effect="#path-effect5825"
       inkscape:original-d="M 289,-5.6378174 274,63.362183"
       inkscape:connector-curvature="0" />
    <path
       style="fill:none;stroke:#000000;stroke-width:1px;stroke-linecap:butt;stroke-linejoin:miter;stroke-opacity:1;marker-end:url(#Arrow2Lend)"
       d="m 451,-28.637817 c 14.67617,3.210529 28.08478,11.908007 37,23.9999996 6.84729,9.2871914 11.05227,20.5004754 12,32.0000004"
       id="path5831"
       inkscape:path-effect="#path-effect5833"
       inkscape:original-d="m 451,-28.637817 c 0,0 27.62222,15.632922 37,23.9999996 9.37778,8.3670773 12,32.0000004 12,32.0000004"
       inkscape:connector-curvature="0"
       sodipodi:nodetypes="czc" />
    <path
       style="fill:none;stroke:#a1ff00;stroke-width:4;stroke-linecap:butt;stroke-linejoin:miter;stroke-miterlimit:4;stroke-opacity:1;stroke-dasharray:none"
       d="m 238,94.36218 c 5.8283,5.215816 12.65508,9.31189 20,12 9.85513,3.60681 20.63613,4.65013 31,3"
       id="path6387"
       inkscape:path-effect="#path-effect6389"
       inkscape:original-d="m 238,94.36218 c 0,0 11.11044,9.62374 20,12 8.88956,2.37626 31,3 31,3"
       inkscape:connector-curvature="0"
       sodipodi:nodetypes="czc" />
    <path
       style="fill:none;stroke:#a1ff00;stroke-width:4;stroke-linecap:butt;stroke-linejoin:miter;stroke-miterlimit:4;stroke-opacity:1;stroke-dasharray:none"
       d="m 228,88.362183 c -21.86211,-23.997908 -52.71486,-39.605769 -85,-43 -24.16806,-2.540858 -49.009384,1.657676 -71,12"
       id="path6391"
       inkscape:path-effect="#path-effect6393"
       inkscape:original-d="m 228,88.362183 c 0,0 -56.42723,-38.510841 -85,-43 -23.71145,-3.725381 -71,12 -71,12"
       inkscape:connector-curvature="0"
       sodipodi:nodetypes="csc" />
    <path
       style="fill:none;stroke:#000000;stroke-width:1px;stroke-linecap:butt;stroke-linejoin:miter;stroke-opacity:1;marker-end:url(#Arrow2Lend-0)"
       d="M 125,154.36218 152,63.362183"
       id="path6422"
       inkscape:path-effect="#path-effect6424"
       inkscape:original-d="M 125,154.36218 152,63.362183"
       inkscape:connector-curvature="0"
       sodipodi:nodetypes="cc" />
    <path
       style="fill:none;stroke:#000000;stroke-width:1px;stroke-linecap:butt;stroke-linejoin:miter;stroke-opacity:1;marker-end:url(#Arrow2Lend-0)"
       d="m 253,136.36218 c -3.96079,-1.19752 -7.51911,-3.68834 -10,-7 -2.33727,-3.11995 -3.71078,-6.95171 -3.8878,-10.84601 -0.17701,-3.8943 0.84321,-7.83487 2.8878,-11.15399"
       id="path6996"
       inkscape:path-effect="#path-effect6998"
       inkscape:original-d="m 253,136.36218 c 0,0 -8.50941,-0.2584 -10,-7 -1.49059,-6.7416 -1,-22 -1,-22"
       inkscape:connector-curvature="0"
       sodipodi:nodetypes="czc" />
    <text
       xml:space="preserve"
       style="font-size:30px;font-style:normal;font-weight:normal;line-height:125%;letter-spacing:0px;word-spacing:0px;fill:#000000;fill-opacity:1;stroke:none;font-family:Helvetica;-inkscape-font-specification:Helvetica"
       x="492.76468"
       y="-20.092184"
       id="text5115-4"
       sodipodi:linespacing="125%"><tspan
         sodipodi:role="line"
         id="tspan5117-9"
         x="492.76468"
         y="-20.092184"
         style="font-size:23px">N beads</tspan></text>
  </g>
</svg>
